<mxfile host="app.diagrams.net" agent="Mozilla/5.0 (Macintosh; Intel Mac OS X 10_15_7) AppleWebKit/537.36 (KHTML, like Gecko) Chrome/138.0.0.0 Safari/537.36" version="27.2.0">
  <diagram name="Page-1" id="DS_TWJ373Ps78vdfHSgM">
    <mxGraphModel dx="1179" dy="806" grid="1" gridSize="10" guides="1" tooltips="1" connect="1" arrows="1" fold="1" page="1" pageScale="1" pageWidth="850" pageHeight="1100" math="0" shadow="0">
      <root>
        <mxCell id="0" />
        <mxCell id="1" parent="0" />
        <mxCell id="1CRBDQJJfLzbWSRdy7kv-4" value="" style="edgeStyle=orthogonalEdgeStyle;rounded=0;orthogonalLoop=1;jettySize=auto;html=1;" edge="1" parent="1" target="1CRBDQJJfLzbWSRdy7kv-3">
          <mxGeometry relative="1" as="geometry">
            <mxPoint x="190" y="182.5" as="sourcePoint" />
          </mxGeometry>
        </mxCell>
        <mxCell id="1CRBDQJJfLzbWSRdy7kv-5" value="&lt;font style=&quot;font-size: 16px;&quot;&gt;GET&amp;nbsp;&lt;/font&gt;&lt;div&gt;&lt;font style=&quot;font-size: 16px;&quot;&gt;/question?prompt=helloWorld&lt;/font&gt;&lt;/div&gt;" style="edgeLabel;html=1;align=center;verticalAlign=middle;resizable=0;points=[];" vertex="1" connectable="0" parent="1CRBDQJJfLzbWSRdy7kv-4">
          <mxGeometry x="-0.104" y="-1" relative="1" as="geometry">
            <mxPoint x="17" y="-1" as="offset" />
          </mxGeometry>
        </mxCell>
        <mxCell id="1CRBDQJJfLzbWSRdy7kv-3" value="&lt;div style=&quot;&quot;&gt;&lt;span style=&quot;font-size: 24px; background-color: transparent; color: light-dark(rgb(0, 0, 0), rgb(255, 255, 255));&quot;&gt;Backend Server&lt;/span&gt;&lt;/div&gt;" style="whiteSpace=wrap;html=1;verticalAlign=middle;align=center;fillColor=#d5e8d4;strokeColor=#82b366;" vertex="1" parent="1">
          <mxGeometry x="530" y="120" width="220" height="125" as="geometry" />
        </mxCell>
        <mxCell id="1CRBDQJJfLzbWSRdy7kv-6" value="&lt;h1 style=&quot;margin-top: 0px;&quot;&gt;HTTP Sync&lt;/h1&gt;&lt;div&gt;Blocking HTTP call to fetch response from LLM and send it back to the user.&lt;/div&gt;" style="text;html=1;whiteSpace=wrap;overflow=hidden;rounded=0;" vertex="1" parent="1">
          <mxGeometry x="100" y="10" width="230" height="130" as="geometry" />
        </mxCell>
        <mxCell id="1CRBDQJJfLzbWSRdy7kv-8" value="&lt;font style=&quot;font-size: 18px;&quot;&gt;User Client&lt;/font&gt;" style="ellipse;whiteSpace=wrap;html=1;aspect=fixed;fillColor=#fff2cc;strokeColor=#d6b656;" vertex="1" parent="1">
          <mxGeometry x="70" y="122.5" width="120" height="120" as="geometry" />
        </mxCell>
        <mxCell id="1CRBDQJJfLzbWSRdy7kv-14" style="edgeStyle=orthogonalEdgeStyle;rounded=0;orthogonalLoop=1;jettySize=auto;html=1;entryX=1;entryY=0.5;entryDx=0;entryDy=0;" edge="1" parent="1" source="1CRBDQJJfLzbWSRdy7kv-12" target="1CRBDQJJfLzbWSRdy7kv-13">
          <mxGeometry relative="1" as="geometry" />
        </mxCell>
        <mxCell id="1CRBDQJJfLzbWSRdy7kv-15" value="&lt;div&gt;&lt;font style=&quot;font-size: 15px;&quot;&gt;HTTP 200&lt;/font&gt;&lt;/div&gt;&lt;div&gt;&lt;font style=&quot;font-size: 15px;&quot;&gt;&lt;br&gt;&lt;/font&gt;&lt;/div&gt;&lt;font style=&quot;font-size: 15px;&quot;&gt;{&lt;/font&gt;&lt;div&gt;&lt;span style=&quot;font-size: 15px;&quot;&gt;&lt;br&gt;&lt;/span&gt;&lt;div&gt;&lt;font style=&quot;font-size: 15px;&quot;&gt;&quot;prompt&quot;: &quot;helloWorld&quot;,&amp;nbsp;&lt;/font&gt;&lt;/div&gt;&lt;div&gt;&lt;font style=&quot;font-size: 15px;&quot;&gt;&quot;answer&quot;: &quot;Hi There!&quot;&lt;/font&gt;&lt;/div&gt;&lt;div&gt;&lt;font style=&quot;font-size: 15px;&quot;&gt;&lt;br&gt;&lt;/font&gt;&lt;/div&gt;&lt;div&gt;&lt;font style=&quot;font-size: 15px;&quot;&gt;}&lt;/font&gt;&lt;/div&gt;&lt;/div&gt;" style="edgeLabel;html=1;align=left;verticalAlign=middle;resizable=0;points=[];" vertex="1" connectable="0" parent="1CRBDQJJfLzbWSRdy7kv-14">
          <mxGeometry x="-0.0636" y="4" relative="1" as="geometry">
            <mxPoint x="-91" y="-4" as="offset" />
          </mxGeometry>
        </mxCell>
        <mxCell id="1CRBDQJJfLzbWSRdy7kv-12" value="&lt;div style=&quot;&quot;&gt;&lt;span style=&quot;font-size: 24px; background-color: transparent; color: light-dark(rgb(0, 0, 0), rgb(255, 255, 255));&quot;&gt;Backend Server&lt;/span&gt;&lt;/div&gt;" style="whiteSpace=wrap;html=1;verticalAlign=middle;align=center;fillColor=#d5e8d4;strokeColor=#82b366;" vertex="1" parent="1">
          <mxGeometry x="530" y="337.5" width="220" height="125" as="geometry" />
        </mxCell>
        <mxCell id="1CRBDQJJfLzbWSRdy7kv-13" value="&lt;font style=&quot;font-size: 18px;&quot;&gt;User Client&lt;/font&gt;" style="ellipse;whiteSpace=wrap;html=1;aspect=fixed;fillColor=#fff2cc;strokeColor=#d6b656;" vertex="1" parent="1">
          <mxGeometry x="70" y="340" width="120" height="120" as="geometry" />
        </mxCell>
        <mxCell id="1CRBDQJJfLzbWSRdy7kv-16" value="" style="endArrow=none;html=1;rounded=0;" edge="1" parent="1">
          <mxGeometry width="50" height="50" relative="1" as="geometry">
            <mxPoint x="70" y="277.5" as="sourcePoint" />
            <mxPoint x="1190" y="280" as="targetPoint" />
            <Array as="points">
              <mxPoint x="80" y="277.5" />
            </Array>
          </mxGeometry>
        </mxCell>
        <mxCell id="1CRBDQJJfLzbWSRdy7kv-17" value="&lt;font style=&quot;font-size: 17px;&quot;&gt;&lt;i&gt;... ~ 15 seconds later ...&lt;/i&gt;&lt;/font&gt;" style="edgeLabel;html=1;align=center;verticalAlign=middle;resizable=0;points=[];" vertex="1" connectable="0" parent="1CRBDQJJfLzbWSRdy7kv-16">
          <mxGeometry x="-0.4778" y="-1" relative="1" as="geometry">
            <mxPoint x="267" as="offset" />
          </mxGeometry>
        </mxCell>
        <mxCell id="1CRBDQJJfLzbWSRdy7kv-22" style="edgeStyle=orthogonalEdgeStyle;rounded=0;orthogonalLoop=1;jettySize=auto;html=1;entryX=1;entryY=0.5;entryDx=0;entryDy=0;" edge="1" parent="1" source="1CRBDQJJfLzbWSRdy7kv-18" target="1CRBDQJJfLzbWSRdy7kv-3">
          <mxGeometry relative="1" as="geometry" />
        </mxCell>
        <mxCell id="1CRBDQJJfLzbWSRdy7kv-23" value="&lt;font style=&quot;font-size: 15px;&quot;&gt;LLM Response&lt;/font&gt;" style="edgeLabel;html=1;align=center;verticalAlign=middle;resizable=0;points=[];" vertex="1" connectable="0" parent="1CRBDQJJfLzbWSRdy7kv-22">
          <mxGeometry x="-0.032" y="3" relative="1" as="geometry">
            <mxPoint x="-1" as="offset" />
          </mxGeometry>
        </mxCell>
        <mxCell id="1CRBDQJJfLzbWSRdy7kv-18" value="&lt;font style=&quot;font-size: 22px;&quot;&gt;OpenAI&lt;/font&gt;" style="ellipse;whiteSpace=wrap;html=1;fillColor=#f8cecc;strokeColor=#b85450;direction=south;" vertex="1" parent="1">
          <mxGeometry x="1000" y="116.25" width="160" height="132.5" as="geometry" />
        </mxCell>
        <mxCell id="1CRBDQJJfLzbWSRdy7kv-27" style="edgeStyle=orthogonalEdgeStyle;rounded=0;orthogonalLoop=1;jettySize=auto;html=1;exitX=0.5;exitY=1;exitDx=0;exitDy=0;entryX=1;entryY=0.5;entryDx=0;entryDy=0;" edge="1" parent="1" source="1CRBDQJJfLzbWSRdy7kv-21" target="1CRBDQJJfLzbWSRdy7kv-12">
          <mxGeometry relative="1" as="geometry" />
        </mxCell>
        <mxCell id="1CRBDQJJfLzbWSRdy7kv-28" value="&lt;font style=&quot;font-size: 15px;&quot;&gt;LLM Response&lt;/font&gt;" style="edgeLabel;html=1;align=center;verticalAlign=middle;resizable=0;points=[];" vertex="1" connectable="0" parent="1CRBDQJJfLzbWSRdy7kv-27">
          <mxGeometry x="-0.048" y="2" relative="1" as="geometry">
            <mxPoint as="offset" />
          </mxGeometry>
        </mxCell>
        <mxCell id="1CRBDQJJfLzbWSRdy7kv-21" value="&lt;font style=&quot;font-size: 22px;&quot;&gt;OpenAI&lt;/font&gt;" style="ellipse;whiteSpace=wrap;html=1;fillColor=#f8cecc;strokeColor=#b85450;direction=south;" vertex="1" parent="1">
          <mxGeometry x="1000" y="333.75" width="160" height="132.5" as="geometry" />
        </mxCell>
      </root>
    </mxGraphModel>
  </diagram>
</mxfile>
